<svg width="41" height="41" viewBox="0 0 41 41" fill="none" xmlns="http://www.w3.org/2000/svg">
<g id="LOGO">
<path d="M0.481667 0C1.445 0.0385329 2.73587 0.0770654 4.35427 0.115598C6.01121 0.154131 7.64887 0.173397 9.26728 0.173397C11.1169 0.173397 12.9087 0.154131 14.6427 0.115598C16.3767 0.0770654 17.6098 0.0577991 18.3419 0.0577991C23.698 0.0577991 27.7055 1.11747 30.3643 3.2368C33.0231 5.35614 34.3525 8.092 34.3525 11.4444C34.3525 12.8316 34.0828 14.2959 33.5433 15.8372C33.0038 17.34 32.079 18.7465 30.7689 20.0566C29.4973 21.3282 27.744 22.3686 25.5091 23.1778C23.2742 23.987 20.4612 24.3916 17.0703 24.3916H0V23.2356H16.4923C18.7658 23.2356 20.4805 22.7154 21.6365 21.675C22.831 20.6346 23.6402 19.2667 24.0641 17.5712C24.5265 15.8757 24.7577 14.0454 24.7577 12.0802C24.7577 8.41954 24.2182 5.68367 23.1393 3.8726C22.0604 2.06153 20.2108 1.156 17.5905 1.156C16.0877 1.156 15.1051 1.48353 14.6427 2.1386C14.2188 2.79367 14.0069 4.12307 14.0069 6.1268V34.4488C14.0069 35.9516 14.161 37.0691 14.4693 37.8012C14.7775 38.5334 15.3748 39.015 16.2611 39.2462C17.1474 39.4774 18.4575 39.6123 20.1915 39.6508V40.9224C18.997 40.8839 17.4556 40.8454 15.5675 40.8068C13.6793 40.7683 11.6949 40.749 9.61407 40.749C7.95714 40.749 6.33874 40.7683 4.75887 40.8068C3.179 40.8454 1.75327 40.8839 0.481667 40.9224V39.7664C1.71473 39.6894 2.63953 39.5352 3.25607 39.304C3.8726 39.0728 4.2772 38.6104 4.46987 37.9168C4.70107 37.2232 4.81667 36.1828 4.81667 34.7956V6.1268C4.81667 4.70107 4.70107 3.66067 4.46987 3.0056C4.2772 2.312 3.85334 1.8496 3.19827 1.6184C2.58173 1.34867 1.6762 1.19453 0.481667 1.156V0Z" fill="black"/>
<path d="M18.0958 0C25.6869 0 31.332 1.734 35.0312 5.202C38.7304 8.63147 40.58 13.5637 40.58 19.9988C40.58 24.1989 39.6745 27.8789 37.8634 31.0386C36.0523 34.1598 33.4128 36.5874 29.9448 38.3214C26.5153 40.0554 22.3923 40.9224 17.5756 40.9224C16.959 40.9224 16.1498 40.9032 15.148 40.8646C14.1461 40.8261 13.1057 40.8068 12.0268 40.8068C10.9478 40.7683 9.98451 40.749 9.13678 40.749C7.44131 40.749 5.76511 40.7683 4.10817 40.8068C2.48977 40.8068 1.1989 40.8454 0.235565 40.9224V39.7664C1.46863 39.6894 2.39344 39.5352 3.00997 39.304C3.62651 39.0728 4.0311 38.6104 4.22377 37.9168C4.45497 37.2232 4.57057 36.1828 4.57057 34.7956V6.1268C4.57057 4.70107 4.45497 3.66067 4.22377 3.0056C4.0311 2.312 3.60724 1.8496 2.95217 1.6184C2.33564 1.34867 1.4301 1.19453 0.235565 1.156V0C1.1989 0.0385329 2.48977 0.0963317 4.10817 0.173397C5.76511 0.21193 7.40277 0.21193 9.02117 0.173397C10.4084 0.134865 11.969 0.096332 13.703 0.0577991C15.4755 0.0192663 16.9398 0 18.0958 0ZM18.038 1.0404C16.2654 1.0404 15.1094 1.36793 14.57 2.023C14.0305 2.67807 13.7608 4.00747 13.7608 6.0112V34.9112C13.7608 36.9149 14.0305 38.2444 14.57 38.8994C15.148 39.5545 16.3232 39.882 18.0958 39.882C21.3326 39.882 23.8758 39.1306 25.7254 37.6278C27.6135 36.0865 28.9622 33.8516 29.7714 30.923C30.5806 27.9945 30.9852 24.4301 30.9852 20.23C30.9852 15.9143 30.5421 12.3499 29.6558 9.537C28.8081 6.68554 27.4401 4.5662 25.552 3.179C23.6639 1.75326 21.1592 1.0404 18.038 1.0404Z" fill="black"/>
</g>
</svg>
